<svg xmlns="http://www.w3.org/2000/svg" xmlns:xlink="http://www.w3.org/1999/xlink" fill="none" version="1.1" width="128" height="128" viewBox="0 0 128 128"><defs><clipPath id="master_svg0_43_2224"><rect x="0" y="0" width="128" height="128" rx="0"/></clipPath><linearGradient x1="1.0966843366622925" y1="1.6009749174118042" x2="0.0005121604190208454" y2="-0.03873169049620631" id="master_svg1_46_022"><stop offset="79.79999780654907%" stop-color="#FF3A3A" stop-opacity="1"/><stop offset="97.69999980926514%" stop-color="#FFBCCE" stop-opacity="1"/></linearGradient><filter id="master_svg2_43_2226" filterUnits="objectBoundingBox" color-interpolation-filters="sRGB" x="-0.29850746268656714" y="-0.12030075187969924" width="1.5970149253731343" height="1.300751879699248"><feFlood flood-opacity="0" result="BackgroundImageFix"/><feColorMatrix in="SourceAlpha" type="matrix" values="0 0 0 0 0 0 0 0 0 0 0 0 0 0 0 0 0 0 127 0"/><feOffset dy="4" dx="0"/><feGaussianBlur stdDeviation="5"/><feColorMatrix type="matrix" values="0 0 0 0 0 0 0 0 0 0 0 0 0 0 0 0 0 0 0.12999999523162842 0"/><feBlend mode="normal" in2="BackgroundImageFix" result="effect1_dropShadow"/><feBlend mode="normal" in="SourceGraphic" in2="effect1_dropShadow" result="shape"/></filter></defs><g clip-path="url(#master_svg0_43_2224)"><g><path d="M126.474,71.1624C120.572,122.611,108.282,132.376,56.8324,126.475C5.38718,120.572,-4.37302,108.28,1.52282,56.8317C7.42584,5.38311,19.7176,-4.37729,71.1653,1.52585C122.613,7.4243,132.378,19.7164,126.474,71.1624L126.474,71.1624Z" fill="url(#master_svg1_46_022)" fill-opacity="1" style="mix-blend-mode:passthrough"/></g><g filter="url(#master_svg2_43_2226)"><path d="M93.52600000000001,56.772C89.75200000000001,39.738,74.146,24.234,49.054,33.21C32.734,39.024,32.02,47.49,35.488,51.57C37.834,54.426,43.444,54.834,43.444,54.834C43.444,54.834,41.302,57.792,40.792,65.85C40.18,73.806,46.096000000000004,82.374,46.096000000000004,82.374C43.75,83.19,38.854,87.474,41.098,92.064C43.954,97.878,52.318,100.836,65.782,97.572C89.956,91.758,96.586,70.644,93.52600000000001,56.772ZM63.13,77.376C55.888000000000005,75.54,55.378,57.384,59.05,52.386C62.824,47.388,75.166,45.858,75.982,57.588C76.696,66.97200000000001,70.47399999999999,79.11,63.13,77.376Z" fill="#FFFFFF" fill-opacity="1"/></g><g><path d="M106.85,28.10608C106.85,24.91591,104.78725,22,100.99387,22C97.20049,22,95,24.84417,95,27.91171C95,31.20262,97.46901,33.7678,100.92666,33.7678C104.38431,33.7678,106.85,31.39594,106.85,28.10608Z" fill="#FFFFFF" fill-opacity="1" style="mix-blend-mode:passthrough"/></g></g></svg>